<svg xmlns="http://www.w3.org/2000/svg" width="8" height="10" viewBox="0 0 8 10" fill="none">
<g clip-path="url(#clip0_1_25)">
<path d="M4.02027 7.47355L1.11189 4.28468C1.08845 4.25842 1.06069 4.23772 1.03022 4.22379C0.999757 4.20986 0.967185 4.20296 0.934393 4.2035C0.901602 4.20404 0.869242 4.212 0.839186 4.22694C0.80913 4.24187 0.781975 4.26347 0.759292 4.29048C0.736609 4.3175 0.718849 4.3494 0.707039 4.38434C0.69523 4.41927 0.689605 4.45655 0.690491 4.49401C0.691376 4.53148 0.698755 4.56838 0.712199 4.60259C0.725643 4.6368 0.744887 4.66764 0.768815 4.69332L3.85149 8.07296C3.89815 8.12411 3.9604 8.15248 4.025 8.15203C4.08961 8.15158 4.15146 8.12234 4.1974 8.07054L7.23262 4.64822C7.25619 4.62221 7.275 4.59111 7.28797 4.55672C7.30093 4.52232 7.3078 4.48532 7.30816 4.44785C7.30852 4.41038 7.30238 4.37318 7.29008 4.33841C7.27779 4.30364 7.25958 4.272 7.23652 4.2453C7.21347 4.2186 7.18601 4.19738 7.15575 4.18287C7.12549 4.16836 7.09302 4.16085 7.06023 4.16076C7.02743 4.16068 6.99496 4.16803 6.96469 4.18239C6.93442 4.19675 6.90695 4.21783 6.88388 4.24441L4.02027 7.47355Z" fill="white"/>
</g>
<defs>
<clipPath id="clip0_1_25">
<rect width="9.06949" height="7.93693" fill="white" transform="translate(0.0632324 9.12463) rotate(-90.3997)"/>
</clipPath>
</defs>
</svg>