<svg xmlns="http://www.w3.org/2000/svg" width="34" height="35" viewBox="0 0 34 35" fill="none">
<path d="M17.0014 13.1248C15.8742 13.1248 14.7932 13.5858 13.9962 14.4062C13.1992 15.2267 12.7514 16.3395 12.7514 17.4998C12.7514 18.6602 13.1992 19.773 13.9962 20.5934C14.7932 21.4139 15.8742 21.8748 17.0014 21.8748C18.1286 21.8748 19.2096 21.4139 20.0066 20.5934C20.8036 19.773 21.2514 18.6602 21.2514 17.4998C21.2514 16.3395 20.8036 15.2267 20.0066 14.4062C19.2096 13.5858 18.1286 13.1248 17.0014 13.1248ZM17.0014 10.2082C18.88 10.2082 20.6817 10.9764 22.0101 12.3439C23.3385 13.7113 24.0847 15.566 24.0847 17.4998C24.0847 19.4337 23.3385 21.2884 22.0101 22.6558C20.6817 24.0233 18.88 24.7915 17.0014 24.7915C15.1228 24.7915 13.3211 24.0233 11.9927 22.6558C10.6644 21.2884 9.91808 19.4337 9.91808 17.4998C9.91808 15.566 10.6644 13.7113 11.9927 12.3439C13.3211 10.9764 15.1228 10.2082 17.0014 10.2082ZM26.2097 9.84359C26.2097 10.3271 26.0232 10.7907 25.6911 11.1326C25.359 11.4744 24.9086 11.6665 24.4389 11.6665C23.9693 11.6665 23.5188 11.4744 23.1867 11.1326C22.8547 10.7907 22.6681 10.3271 22.6681 9.84359C22.6681 9.36012 22.8547 8.89645 23.1867 8.55459C23.5188 8.21273 23.9693 8.02067 24.4389 8.02067C24.9086 8.02067 25.359 8.21273 25.6911 8.55459C26.0232 8.89645 26.2097 9.36012 26.2097 9.84359ZM17.0014 5.83317C13.4966 5.83317 12.9242 5.84338 11.2937 5.91775C10.183 5.97171 9.43783 6.12484 8.7465 6.40192C8.16795 6.62058 7.64492 6.97105 7.2165 7.42713C6.77309 7.86813 6.43216 8.40652 6.21916 9.00213C5.95 9.71671 5.80125 10.4823 5.75025 11.6242C5.67658 13.2342 5.66666 13.7971 5.66666 17.4998C5.66666 21.1092 5.67658 21.6969 5.74883 23.3755C5.80125 24.5173 5.95 25.2859 6.21775 25.9961C6.45858 26.6305 6.74191 27.0869 7.21225 27.5711C7.68966 28.0611 8.13308 28.3542 8.74225 28.5963C9.44208 28.8748 10.1872 29.0294 11.2922 29.0819C12.8562 29.1578 13.4031 29.1665 17 29.1665C20.5062 29.1665 21.0772 29.1563 22.7077 29.0819C23.8156 29.028 24.5607 28.8748 25.2535 28.5992C25.8315 28.3795 26.3543 28.0292 26.7835 27.574C27.2609 27.084 27.5457 26.6275 27.7808 25.999C28.05 25.2815 28.2002 24.5144 28.2512 23.374C28.3248 21.7655 28.3333 21.2011 28.3333 17.4998C28.3333 13.8919 28.3234 13.3028 28.2512 11.6242C28.1987 10.4838 28.0486 9.7138 27.7808 9.00213C27.5673 8.40715 27.227 7.86898 26.7849 7.42713C26.3567 6.97045 25.8336 6.61946 25.2549 6.40046C24.5607 6.12338 23.8156 5.97025 22.7077 5.91775C21.1452 5.84192 20.5997 5.83317 17.0014 5.83317ZM17.0014 2.9165C20.8505 2.9165 21.3307 2.93109 22.8423 3.004C24.3497 3.07692 25.3782 3.32046 26.2806 3.68213C27.2156 4.05255 28.0033 4.55421 28.7909 5.36359C29.5113 6.0926 30.0687 6.97445 30.4243 7.94775C30.7743 8.87671 31.0122 9.93546 31.0831 11.4886C31.1497 13.0432 31.1681 13.5375 31.1681 17.4998C31.1681 21.4621 31.1539 21.9565 31.0831 23.5111C31.0122 25.0642 30.7743 26.1215 30.4243 27.0519C30.0697 28.0257 29.5121 28.9078 28.7909 29.6361C28.0825 30.3774 27.2259 30.9511 26.2806 31.3175C25.3782 31.6778 24.3497 31.9228 22.8423 31.9957C21.3307 32.0642 20.8505 32.0832 17.0014 32.0832C13.1523 32.0832 12.6721 32.0686 11.1605 31.9957C9.65316 31.9228 8.62608 31.6778 7.72225 31.3175C6.77638 30.9522 5.91958 30.3783 5.21191 29.6361C4.49144 28.9072 3.93402 28.0253 3.5785 27.0519C3.22716 26.123 2.99058 25.0642 2.91975 23.5111C2.85175 21.9565 2.83475 21.4621 2.83475 17.4998C2.83475 13.5375 2.84891 13.0432 2.91975 11.4886C2.99058 9.934 3.22716 8.87817 3.5785 7.94775C3.933 6.97385 4.49055 6.09176 5.21191 5.36359C5.91978 4.62163 6.77652 4.04778 7.72225 3.68213C8.62466 3.32046 9.65175 3.07692 11.1605 3.004C12.6721 2.93546 13.1523 2.9165 17.0014 2.9165Z" fill="white"/>
</svg>