<svg xmlns="http://www.w3.org/2000/svg" width="37" height="39" viewBox="0 0 37 39" fill="none">
<path d="M25.5917 9.4575C24.5378 8.18939 23.9571 6.56083 23.9575 4.875H19.1938V25.025C19.157 26.1154 18.7203 27.1483 17.9755 27.906C17.2307 28.6638 16.236 29.0873 15.2008 29.0875C13.0117 29.0875 11.1925 27.2025 11.1925 24.8625C11.1925 22.0675 13.7517 19.9712 16.3879 20.8325V15.6975C11.0692 14.95 6.41333 19.305 6.41333 24.8625C6.41333 30.2738 10.6683 34.125 15.1854 34.125C20.0263 34.125 23.9575 29.9813 23.9575 24.8625V14.6413C25.8892 16.1035 28.2084 16.8881 30.5867 16.8838V11.8625C30.5867 11.8625 27.6883 12.0088 25.5917 9.4575Z" fill="white"/>
</svg>