<svg xmlns="http://www.w3.org/2000/svg" width="32" height="22" viewBox="0 0 32 22" fill="none">
<path d="M31.3321 3.43662C31.15 2.77115 30.7928 2.16428 30.2964 1.67675C29.8 1.18922 29.1818 0.83812 28.5036 0.658599C26.0071 1.33636e-07 16 0 16 0C16 0 5.99286 -1.33636e-07 3.49643 0.655095C2.81793 0.834035 2.19937 1.18494 1.70288 1.67256C1.20638 2.16018 0.849426 2.76736 0.667857 3.43312C-1.36239e-07 5.88535 0 11 0 11C0 11 -1.36239e-07 16.1147 0.667857 18.5634C1.03571 19.9156 2.12143 20.9806 3.49643 21.3414C5.99286 22 16 22 16 22C16 22 26.0071 22 28.5036 21.3414C29.8821 20.9806 30.9643 19.9156 31.3321 18.5634C32 16.1147 32 11 32 11C32 11 32 5.88535 31.3321 3.43662ZM12.8214 15.6943V6.30573L21.1071 10.965L12.8214 15.6943Z" fill="white"/>
</svg>